<?xml version="1.0" encoding="UTF-8" standalone="no"?>
<!DOCTYPE svg PUBLIC "-//W3C//DTD SVG 1.1//EN"
 "http://www.w3.org/Graphics/SVG/1.1/DTD/svg11.dtd">
<!-- Generated by graphviz version 2.38.0 (20140413.2041)
 -->
<!-- Title: models_diagram Pages: 1 -->
<svg width="1019pt" height="1105pt"
 viewBox="0.00 0.00 1018.78 1104.50" xmlns="http://www.w3.org/2000/svg" xmlns:xlink="http://www.w3.org/1999/xlink">
<g id="graph0" class="graph" transform="scale(1 1) rotate(0) translate(4 1100.5)">
<title>models_diagram</title>
<polygon fill="none" stroke="none" points="-4,4 -4,-1100.5 1014.78,-1100.5 1014.78,4 -4,4"/>
<g id="clust1" class="cluster"><title>cluster_appform</title>
<polygon fill="none" stroke="black" points="215.688,-8 215.688,-1088.5 949.688,-1088.5 949.688,-8 215.688,-8"/>
<text text-anchor="middle" x="582.688" y="-1073.3" font-family="Times,serif" font-size="14.00">AppForm</text>
</g>
<!-- _diagram_info -->
<g id="node1" class="node"><title>_diagram_info</title>
<text text-anchor="start" x="8" y="-1058.6" font-family="Times,serif" font-size="13.00">Models diagram</text>
<text text-anchor="start" x="8" y="-1045.6" font-family="Times,serif" font-size="13.00">Date: Sep 15 2016 &#45; 01:50</text>
<text text-anchor="start" x="8" y="-1032.6" font-family="Times,serif" font-size="13.00">Migration version: 20160914133401</text>
<text text-anchor="start" x="8" y="-1019.6" font-family="Times,serif" font-size="13.00">Generated by RailRoady 1.5.1</text>
<text text-anchor="start" x="8" y="-1006.6" font-family="Times,serif" font-size="13.00">http://railroady.prestonlee.com</text>
</g>
<!-- appform_applied -->
<g id="node2" class="node"><title>appform_applied</title>
<ellipse fill="none" stroke="black" cx="603.688" cy="-1036.5" rx="36.2595" ry="18"/>
<ellipse fill="none" stroke="black" cx="603.688" cy="-1036.5" rx="40.2731" ry="22"/>
<text text-anchor="middle" x="603.688" y="-1032.3" font-family="Times,serif" font-size="14.00">applied</text>
</g>
<!-- appform_decided_to_invite -->
<g id="node3" class="node"><title>appform_decided_to_invite</title>
<ellipse fill="none" stroke="black" cx="540.688" cy="-936" rx="73.4326" ry="18"/>
<text text-anchor="middle" x="540.688" y="-931.8" font-family="Times,serif" font-size="14.00">decided_to_invite</text>
</g>
<!-- appform_applied&#45;&gt;appform_decided_to_invite -->
<g id="edge1" class="edge"><title>appform_applied&#45;&gt;appform_decided_to_invite</title>
<path fill="none" stroke="black" d="M590.939,-1015.57C581.17,-1000.29 567.619,-979.107 557.051,-962.583"/>
<polygon fill="black" stroke="black" points="559.866,-960.489 551.529,-953.95 553.969,-964.26 559.866,-960.489"/>
<text text-anchor="middle" x="579.074" y="-974" font-family="Times,serif" font-size="10.00">invite</text>
</g>
<!-- appform_decided_to_reject_application -->
<g id="node5" class="node"><title>appform_decided_to_reject_application</title>
<ellipse fill="none" stroke="black" cx="748.688" cy="-936" rx="116.847" ry="18"/>
<text text-anchor="middle" x="748.688" y="-931.8" font-family="Times,serif" font-size="14.00">decided_to_reject_application</text>
</g>
<!-- appform_applied&#45;&gt;appform_decided_to_reject_application -->
<g id="edge7" class="edge"><title>appform_applied&#45;&gt;appform_decided_to_reject_application</title>
<path fill="none" stroke="black" d="M628.285,-1018.79C652.241,-1002.52 688.826,-977.665 715.381,-959.625"/>
<polygon fill="black" stroke="black" points="717.665,-962.306 723.97,-953.791 713.731,-956.515 717.665,-962.306"/>
<text text-anchor="middle" x="703.789" y="-974" font-family="Times,serif" font-size="10.00">reject</text>
</g>
<!-- appform_invite_email_sent -->
<g id="node4" class="node"><title>appform_invite_email_sent</title>
<ellipse fill="none" stroke="black" cx="540.688" cy="-854" rx="72.9567" ry="18"/>
<text text-anchor="middle" x="540.688" y="-849.8" font-family="Times,serif" font-size="14.00">invite_email_sent</text>
</g>
<!-- appform_decided_to_invite&#45;&gt;appform_invite_email_sent -->
<g id="edge2" class="edge"><title>appform_decided_to_invite&#45;&gt;appform_invite_email_sent</title>
<path fill="none" stroke="black" d="M540.688,-917.641C540.688,-907.297 540.688,-893.941 540.688,-882.221"/>
<polygon fill="black" stroke="black" points="544.188,-882.05 540.688,-872.05 537.188,-882.05 544.188,-882.05"/>
<text text-anchor="middle" x="562.348" y="-892" font-family="Times,serif" font-size="10.00">email_sent</text>
</g>
<!-- appform_interview_scheduled -->
<g id="node7" class="node"><title>appform_interview_scheduled</title>
<ellipse fill="none" stroke="black" cx="535.688" cy="-690" rx="83.0718" ry="18"/>
<text text-anchor="middle" x="535.688" y="-685.8" font-family="Times,serif" font-size="14.00">interview_scheduled</text>
</g>
<!-- appform_invite_email_sent&#45;&gt;appform_interview_scheduled -->
<g id="edge10" class="edge"><title>appform_invite_email_sent&#45;&gt;appform_interview_scheduled</title>
<path fill="none" stroke="black" d="M526.297,-836.112C517.059,-824.112 505.895,-807.145 500.939,-790 496.495,-774.629 496.949,-769.495 500.939,-754 504.321,-740.864 511.087,-727.536 517.757,-716.543"/>
<polygon fill="black" stroke="black" points="520.834,-718.227 523.26,-707.913 514.932,-714.463 520.834,-718.227"/>
<text text-anchor="middle" x="540.562" y="-769" font-family="Times,serif" font-size="10.00">schedule_interview</text>
</g>
<!-- appform_invite_no_response -->
<g id="node10" class="node"><title>appform_invite_no_response</title>
<ellipse fill="none" stroke="black" cx="666.688" cy="-772" rx="78.7539" ry="18"/>
<text text-anchor="middle" x="666.688" y="-767.8" font-family="Times,serif" font-size="14.00">invite_no_response</text>
</g>
<!-- appform_invite_email_sent&#45;&gt;appform_invite_no_response -->
<g id="edge15" class="edge"><title>appform_invite_email_sent&#45;&gt;appform_invite_no_response</title>
<path fill="none" stroke="black" d="M565.883,-837.003C584.986,-824.874 611.448,-808.073 632.467,-794.727"/>
<polygon fill="black" stroke="black" points="634.538,-797.558 641.104,-789.243 630.786,-791.649 634.538,-797.558"/>
<text text-anchor="middle" x="635.683" y="-810" font-family="Times,serif" font-size="10.00">no_response</text>
</g>
<!-- appform_application_reject_email_sent -->
<g id="node6" class="node"><title>appform_application_reject_email_sent</title>
<ellipse fill="none" stroke="black" cx="748.688" cy="-854" rx="116.371" ry="18"/>
<text text-anchor="middle" x="748.688" y="-849.8" font-family="Times,serif" font-size="14.00">application_reject_email_sent</text>
</g>
<!-- appform_decided_to_reject_application&#45;&gt;appform_application_reject_email_sent -->
<g id="edge3" class="edge"><title>appform_decided_to_reject_application&#45;&gt;appform_application_reject_email_sent</title>
<path fill="none" stroke="black" d="M748.688,-917.641C748.688,-907.297 748.688,-893.941 748.688,-882.221"/>
<polygon fill="black" stroke="black" points="752.188,-882.05 748.688,-872.05 745.188,-882.05 752.188,-882.05"/>
<text text-anchor="middle" x="770.348" y="-892" font-family="Times,serif" font-size="10.00">email_sent</text>
</g>
<!-- appform_interview_scheduled&#45;&gt;appform_interview_scheduled -->
<g id="edge12" class="edge"><title>appform_interview_scheduled&#45;&gt;appform_interview_scheduled</title>
<path fill="none" stroke="black" d="M612.536,-697.115C626.875,-696.239 636.973,-693.867 636.973,-690 636.973,-687.13 631.411,-685.083 622.681,-683.861"/>
<polygon fill="black" stroke="black" points="622.826,-680.359 612.536,-682.885 622.155,-687.327 622.826,-680.359"/>
<text text-anchor="middle" x="658.35" y="-687" font-family="Times,serif" font-size="10.00">reschedule</text>
</g>
<!-- appform_interviewed -->
<g id="node8" class="node"><title>appform_interviewed</title>
<ellipse fill="none" stroke="black" cx="474.688" cy="-608" rx="51.7002" ry="18"/>
<text text-anchor="middle" x="474.688" y="-603.8" font-family="Times,serif" font-size="14.00">interviewed</text>
</g>
<!-- appform_interview_scheduled&#45;&gt;appform_interviewed -->
<g id="edge11" class="edge"><title>appform_interview_scheduled&#45;&gt;appform_interviewed</title>
<path fill="none" stroke="black" d="M508.377,-672.965C501.23,-667.686 494.09,-661.277 488.924,-654 485.217,-648.778 482.446,-642.55 480.386,-636.417"/>
<polygon fill="black" stroke="black" points="483.637,-635.052 477.549,-626.381 476.901,-636.956 483.637,-635.052"/>
<text text-anchor="middle" x="508.57" y="-646" font-family="Times,serif" font-size="10.00">interview</text>
</g>
<!-- appform_no_show -->
<g id="node11" class="node"><title>appform_no_show</title>
<ellipse fill="none" stroke="black" cx="595.688" cy="-608" rx="42.087" ry="18"/>
<text text-anchor="middle" x="595.688" y="-603.8" font-family="Times,serif" font-size="14.00">no_show</text>
</g>
<!-- appform_interview_scheduled&#45;&gt;appform_no_show -->
<g id="edge22" class="edge"><title>appform_interview_scheduled&#45;&gt;appform_no_show</title>
<path fill="none" stroke="black" d="M530.295,-671.688C528.577,-662.841 528.2,-652.235 533.032,-644 537.947,-635.626 545.675,-629.106 554.049,-624.089"/>
<polygon fill="black" stroke="black" points="555.721,-627.164 562.918,-619.389 552.443,-620.979 555.721,-627.164"/>
<text text-anchor="middle" x="557.015" y="-646" font-family="Times,serif" font-size="10.00">wont_come</text>
</g>
<!-- appform_rejected_after_interview -->
<g id="node9" class="node"><title>appform_rejected_after_interview</title>
<ellipse fill="none" stroke="black" cx="374.688" cy="-362" rx="96.5499" ry="18"/>
<text text-anchor="middle" x="374.688" y="-357.8" font-family="Times,serif" font-size="14.00">rejected_after_interview</text>
</g>
<!-- appform_interviewed&#45;&gt;appform_rejected_after_interview -->
<g id="edge8" class="edge"><title>appform_interviewed&#45;&gt;appform_rejected_after_interview</title>
<path fill="none" stroke="black" d="M464.564,-590.103C461.285,-584.419 457.715,-577.998 454.688,-572 436.736,-536.436 433.037,-527.085 418.486,-490 405.083,-455.843 391.612,-415.704 383.219,-389.836"/>
<polygon fill="black" stroke="black" points="386.451,-388.454 380.052,-380.009 379.788,-390.601 386.451,-388.454"/>
<text text-anchor="middle" x="429.789" y="-482" font-family="Times,serif" font-size="10.00">reject</text>
</g>
<!-- appform_admitted -->
<g id="node15" class="node"><title>appform_admitted</title>
<ellipse fill="none" stroke="black" cx="530.688" cy="-362" rx="41.1007" ry="18"/>
<text text-anchor="middle" x="530.688" y="-357.8" font-family="Times,serif" font-size="14.00">admitted</text>
</g>
<!-- appform_interviewed&#45;&gt;appform_admitted -->
<g id="edge25" class="edge"><title>appform_interviewed&#45;&gt;appform_admitted</title>
<path fill="none" stroke="black" d="M467.675,-589.998C453.309,-552.25 424.93,-459.9 462.688,-398 468.458,-388.54 477.692,-381.529 487.519,-376.375"/>
<polygon fill="black" stroke="black" points="489.031,-379.531 496.628,-372.146 486.084,-373.182 489.031,-379.531"/>
<text text-anchor="middle" x="456.074" y="-482" font-family="Times,serif" font-size="10.00">admit</text>
</g>
<!-- appform_waitlisted -->
<g id="node16" class="node"><title>appform_waitlisted</title>
<ellipse fill="none" stroke="black" cx="529.688" cy="-526" rx="44.4837" ry="18"/>
<text text-anchor="middle" x="529.688" y="-521.8" font-family="Times,serif" font-size="14.00">waitlisted</text>
</g>
<!-- appform_interviewed&#45;&gt;appform_waitlisted -->
<g id="edge27" class="edge"><title>appform_interviewed&#45;&gt;appform_waitlisted</title>
<path fill="none" stroke="black" d="M486.084,-590.424C493.753,-579.268 504.003,-564.36 512.638,-551.8"/>
<polygon fill="black" stroke="black" points="515.525,-553.778 518.306,-543.555 509.757,-549.812 515.525,-553.778"/>
<text text-anchor="middle" x="520.409" y="-564" font-family="Times,serif" font-size="10.00">waitlist</text>
</g>
<!-- appform_scholarship_shortlisted -->
<g id="node21" class="node"><title>appform_scholarship_shortlisted</title>
<ellipse fill="none" stroke="black" cx="762.688" cy="-362" rx="91.8085" ry="18"/>
<text text-anchor="middle" x="762.688" y="-357.8" font-family="Times,serif" font-size="14.00">scholarship_shortlisted</text>
</g>
<!-- appform_interviewed&#45;&gt;appform_scholarship_shortlisted -->
<g id="edge30" class="edge"><title>appform_interviewed&#45;&gt;appform_scholarship_shortlisted</title>
<path fill="none" stroke="black" d="M502.004,-592.577C513.436,-586.408 526.803,-579.021 538.688,-572 643.078,-510.332 696.448,-513.221 756.688,-408 759.748,-402.654 761.499,-396.378 762.455,-390.238"/>
<polygon fill="black" stroke="black" points="765.945,-390.507 763.404,-380.222 758.976,-389.847 765.945,-390.507"/>
<text text-anchor="middle" x="749.405" y="-482" font-family="Times,serif" font-size="10.00">shortlist_for_scholarship</text>
</g>
<!-- appform_decision_reject_email_sent -->
<g id="node12" class="node"><title>appform_decision_reject_email_sent</title>
<ellipse fill="none" stroke="black" cx="329.688" cy="-280" rx="106.232" ry="18"/>
<text text-anchor="middle" x="329.688" y="-275.8" font-family="Times,serif" font-size="14.00">decision_reject_email_sent</text>
</g>
<!-- appform_rejected_after_interview&#45;&gt;appform_decision_reject_email_sent -->
<g id="edge4" class="edge"><title>appform_rejected_after_interview&#45;&gt;appform_decision_reject_email_sent</title>
<path fill="none" stroke="black" d="M365.144,-344.034C359.059,-333.215 351.055,-318.987 344.192,-306.786"/>
<polygon fill="black" stroke="black" points="347.171,-304.941 339.217,-297.941 341.069,-308.373 347.171,-304.941"/>
<text text-anchor="middle" x="377.348" y="-318" font-family="Times,serif" font-size="10.00">email_sent</text>
</g>
<!-- appform_invite_no_response&#45;&gt;appform_interview_scheduled -->
<g id="edge13" class="edge"><title>appform_invite_no_response&#45;&gt;appform_interview_scheduled</title>
<path fill="none" stroke="black" d="M640.493,-755.003C620.543,-742.82 592.873,-725.923 570.974,-712.549"/>
<polygon fill="black" stroke="black" points="572.645,-709.468 562.286,-707.243 568.997,-715.442 572.645,-709.468"/>
<text text-anchor="middle" x="630.065" y="-728" font-family="Times,serif" font-size="10.00">reschedule</text>
</g>
<!-- appform_no_show&#45;&gt;appform_interview_scheduled -->
<g id="edge14" class="edge"><title>appform_no_show&#45;&gt;appform_interview_scheduled</title>
<path fill="none" stroke="black" d="M593.849,-626.392C592.25,-635.261 589.263,-645.862 583.688,-654 580.555,-658.573 576.621,-662.769 572.361,-666.544"/>
<polygon fill="black" stroke="black" points="570.068,-663.896 564.444,-672.876 574.44,-669.363 570.068,-663.896"/>
<text text-anchor="middle" x="609.065" y="-646" font-family="Times,serif" font-size="10.00">reschedule</text>
</g>
<!-- appform_waitlist_email_sent -->
<g id="node13" class="node"><title>appform_waitlist_email_sent</title>
<ellipse fill="none" stroke="black" cx="555.688" cy="-444" rx="78.7539" ry="18"/>
<text text-anchor="middle" x="555.688" y="-439.8" font-family="Times,serif" font-size="14.00">waitlist_email_sent</text>
</g>
<!-- appform_waitlist_email_sent&#45;&gt;appform_rejected_after_interview -->
<g id="edge9" class="edge"><title>appform_waitlist_email_sent&#45;&gt;appform_rejected_after_interview</title>
<path fill="none" stroke="black" d="M521.217,-427.764C492.494,-415.069 451.358,-396.887 419.979,-383.018"/>
<polygon fill="black" stroke="black" points="421.14,-379.705 410.578,-378.863 418.31,-386.107 421.14,-379.705"/>
<text text-anchor="middle" x="487.789" y="-400" font-family="Times,serif" font-size="10.00">reject</text>
</g>
<!-- appform_waitlist_email_sent&#45;&gt;appform_admitted -->
<g id="edge26" class="edge"><title>appform_waitlist_email_sent&#45;&gt;appform_admitted</title>
<path fill="none" stroke="black" d="M550.386,-426.034C547.071,-415.428 542.733,-401.543 538.971,-389.506"/>
<polygon fill="black" stroke="black" points="542.305,-388.442 535.982,-379.941 535.624,-390.53 542.305,-388.442"/>
<text text-anchor="middle" x="556.074" y="-400" font-family="Times,serif" font-size="10.00">admit</text>
</g>
<!-- appform_waitlist_email_sent&#45;&gt;appform_scholarship_shortlisted -->
<g id="edge31" class="edge"><title>appform_waitlist_email_sent&#45;&gt;appform_scholarship_shortlisted</title>
<path fill="none" stroke="black" d="M588.285,-427.596C608.042,-418.501 633.868,-407.038 657.254,-398 672.897,-391.954 690.077,-385.978 705.945,-380.721"/>
<polygon fill="black" stroke="black" points="707.218,-383.987 715.631,-377.546 705.038,-377.335 707.218,-383.987"/>
<text text-anchor="middle" x="706.405" y="-400" font-family="Times,serif" font-size="10.00">shortlist_for_scholarship</text>
</g>
<!-- appform_admit_email_sent -->
<g id="node14" class="node"><title>appform_admit_email_sent</title>
<ellipse fill="none" stroke="black" cx="526.688" cy="-280" rx="72.9567" ry="18"/>
<text text-anchor="middle" x="526.688" y="-275.8" font-family="Times,serif" font-size="14.00">admit_email_sent</text>
</g>
<!-- appform_admit_email_sent&#45;&gt;appform_admit_email_sent -->
<g id="edge40" class="edge"><title>appform_admit_email_sent&#45;&gt;appform_admit_email_sent</title>
<path fill="none" stroke="black" d="M593.736,-287.236C607.656,-286.475 617.666,-284.062 617.666,-280 617.666,-277.017 612.268,-274.923 603.887,-273.72"/>
<polygon fill="black" stroke="black" points="604.02,-270.217 593.736,-272.764 603.364,-277.186 604.02,-270.217"/>
<text text-anchor="middle" x="634.883" y="-277" font-family="Times,serif" font-size="10.00">payment</text>
</g>
<!-- appform_extension -->
<g id="node17" class="node"><title>appform_extension</title>
<ellipse fill="none" stroke="black" cx="611.688" cy="-198" rx="43.9992" ry="18"/>
<text text-anchor="middle" x="611.688" y="-193.8" font-family="Times,serif" font-size="14.00">extension</text>
</g>
<!-- appform_admit_email_sent&#45;&gt;appform_extension -->
<g id="edge28" class="edge"><title>appform_admit_email_sent&#45;&gt;appform_extension</title>
<path fill="none" stroke="black" d="M528.815,-261.597C530.69,-252.511 534.211,-241.712 540.816,-234 548.128,-225.461 558.018,-218.803 568.087,-213.696"/>
<polygon fill="black" stroke="black" points="569.705,-216.804 577.315,-209.433 566.769,-210.449 569.705,-216.804"/>
<text text-anchor="middle" x="573.624" y="-236" font-family="Times,serif" font-size="10.00">grant_extension</text>
</g>
<!-- appform_deposit_paid -->
<g id="node18" class="node"><title>appform_deposit_paid</title>
<ellipse fill="none" stroke="black" cx="372.688" cy="-198" rx="55.1008" ry="18"/>
<text text-anchor="middle" x="372.688" y="-193.8" font-family="Times,serif" font-size="14.00">deposit_paid</text>
</g>
<!-- appform_admit_email_sent&#45;&gt;appform_deposit_paid -->
<g id="edge38" class="edge"><title>appform_admit_email_sent&#45;&gt;appform_deposit_paid</title>
<path fill="none" stroke="black" d="M496.629,-263.385C471.808,-250.491 436.463,-232.13 409.865,-218.313"/>
<polygon fill="black" stroke="black" points="411.341,-215.135 400.853,-213.631 408.114,-221.347 411.341,-215.135"/>
<text text-anchor="middle" x="476.905" y="-236" font-family="Times,serif" font-size="10.00">payment</text>
</g>
<!-- appform_tuition_paid -->
<g id="node19" class="node"><title>appform_tuition_paid</title>
<ellipse fill="none" stroke="black" cx="628.688" cy="-116" rx="52.6952" ry="18"/>
<text text-anchor="middle" x="628.688" y="-111.8" font-family="Times,serif" font-size="14.00">tuition_paid</text>
</g>
<!-- appform_admit_email_sent&#45;&gt;appform_tuition_paid -->
<g id="edge34" class="edge"><title>appform_admit_email_sent&#45;&gt;appform_tuition_paid</title>
<path fill="none" stroke="black" d="M521.28,-261.972C515.741,-241.173 509.8,-205.601 524.254,-180 536.678,-157.996 560.214,-142.816 581.801,-132.88"/>
<polygon fill="black" stroke="black" points="583.426,-135.991 591.215,-128.808 580.647,-129.566 583.426,-135.991"/>
<text text-anchor="middle" x="541.905" y="-195" font-family="Times,serif" font-size="10.00">payment</text>
</g>
<!-- appform_not_coming -->
<g id="node20" class="node"><title>appform_not_coming</title>
<ellipse fill="none" stroke="black" cx="544.688" cy="-34" rx="52.2106" ry="18"/>
<text text-anchor="middle" x="544.688" y="-29.8" font-family="Times,serif" font-size="14.00">not_coming</text>
</g>
<!-- appform_admit_email_sent&#45;&gt;appform_not_coming -->
<g id="edge16" class="edge"><title>appform_admit_email_sent&#45;&gt;appform_not_coming</title>
<path fill="none" stroke="black" d="M474.431,-267.352C413.227,-253.186 318.839,-229.5 308.688,-216 299.072,-203.212 301.303,-194.194 308.688,-180 346.244,-107.816 437.26,-67.7066 494.655,-48.8073"/>
<polygon fill="black" stroke="black" points="495.802,-52.1155 504.262,-45.7381 493.671,-45.4475 495.802,-52.1155"/>
<text text-anchor="middle" x="349.015" y="-154" font-family="Times,serif" font-size="10.00">wont_come</text>
</g>
<!-- appform_admitted&#45;&gt;appform_admit_email_sent -->
<g id="edge6" class="edge"><title>appform_admitted&#45;&gt;appform_admit_email_sent</title>
<path fill="none" stroke="black" d="M529.82,-343.641C529.303,-333.297 528.635,-319.941 528.049,-308.221"/>
<polygon fill="black" stroke="black" points="531.535,-307.863 527.54,-298.05 524.544,-308.212 531.535,-307.863"/>
<text text-anchor="middle" x="551.348" y="-318" font-family="Times,serif" font-size="10.00">email_sent</text>
</g>
<!-- appform_waitlisted&#45;&gt;appform_waitlist_email_sent -->
<g id="edge5" class="edge"><title>appform_waitlisted&#45;&gt;appform_waitlist_email_sent</title>
<path fill="none" stroke="black" d="M535.202,-508.034C538.625,-497.499 543.1,-483.731 546.994,-471.75"/>
<polygon fill="black" stroke="black" points="550.33,-472.809 550.092,-462.217 543.673,-470.646 550.33,-472.809"/>
<text text-anchor="middle" x="566.348" y="-482" font-family="Times,serif" font-size="10.00">email_sent</text>
</g>
<!-- appform_extension&#45;&gt;appform_extension -->
<g id="edge44" class="edge"><title>appform_extension&#45;&gt;appform_extension</title>
<path fill="none" stroke="black" d="M651.939,-205.489C664.146,-205.301 673.687,-202.805 673.687,-198 673.687,-194.622 668.97,-192.385 661.926,-191.289"/>
<polygon fill="black" stroke="black" points="662.18,-187.798 651.939,-190.511 661.637,-194.777 662.18,-187.798"/>
<text text-anchor="middle" x="690.904" y="-195" font-family="Times,serif" font-size="10.00">payment</text>
</g>
<!-- appform_extension&#45;&gt;appform_tuition_paid -->
<g id="edge37" class="edge"><title>appform_extension&#45;&gt;appform_tuition_paid</title>
<path fill="none" stroke="black" d="M615.293,-180.034C617.509,-169.605 620.399,-156.006 622.927,-144.11"/>
<polygon fill="black" stroke="black" points="626.374,-144.726 625.029,-134.217 619.527,-143.271 626.374,-144.726"/>
<text text-anchor="middle" x="637.905" y="-154" font-family="Times,serif" font-size="10.00">payment</text>
</g>
<!-- appform_extension&#45;&gt;appform_not_coming -->
<g id="edge18" class="edge"><title>appform_extension&#45;&gt;appform_not_coming</title>
<path fill="none" stroke="black" d="M580.943,-185.083C559.602,-174.995 532.798,-158.265 520.032,-134 507.803,-110.755 518.015,-81.2214 528.772,-60.4843"/>
<polygon fill="black" stroke="black" points="531.893,-62.0735 533.674,-51.6296 525.769,-58.6829 531.893,-62.0735"/>
<text text-anchor="middle" x="544.015" y="-113" font-family="Times,serif" font-size="10.00">wont_come</text>
</g>
<!-- appform_deposit_paid&#45;&gt;appform_deposit_paid -->
<g id="edge42" class="edge"><title>appform_deposit_paid&#45;&gt;appform_deposit_paid</title>
<path fill="none" stroke="black" d="M423.389,-205.41C436.297,-204.923 445.988,-202.453 445.988,-198 445.988,-194.799 440.982,-192.623 433.373,-191.471"/>
<polygon fill="black" stroke="black" points="433.659,-187.983 423.389,-190.59 433.043,-194.956 433.659,-187.983"/>
<text text-anchor="middle" x="463.205" y="-195" font-family="Times,serif" font-size="10.00">payment</text>
</g>
<!-- appform_deposit_paid&#45;&gt;appform_tuition_paid -->
<g id="edge36" class="edge"><title>appform_deposit_paid&#45;&gt;appform_tuition_paid</title>
<path fill="none" stroke="black" d="M401.544,-182.582C421.991,-172.836 450.293,-160.281 476.254,-152 513.223,-140.208 523.888,-142.774 561.688,-134 567.021,-132.762 572.582,-131.425 578.119,-130.065"/>
<polygon fill="black" stroke="black" points="579.147,-133.415 588.007,-127.605 577.458,-126.622 579.147,-133.415"/>
<text text-anchor="middle" x="493.905" y="-154" font-family="Times,serif" font-size="10.00">payment</text>
</g>
<!-- appform_deposit_paid&#45;&gt;appform_not_coming -->
<g id="edge20" class="edge"><title>appform_deposit_paid&#45;&gt;appform_not_coming</title>
<path fill="none" stroke="black" d="M386.483,-180.466C403.744,-160.163 434.619,-125.093 464.032,-98 480.021,-83.2725 499.149,-68.233 514.764,-56.5432"/>
<polygon fill="black" stroke="black" points="517.082,-59.1814 523.035,-50.4168 512.916,-53.5564 517.082,-59.1814"/>
<text text-anchor="middle" x="488.015" y="-113" font-family="Times,serif" font-size="10.00">wont_come</text>
</g>
<!-- appform_tuition_paid&#45;&gt;appform_tuition_paid -->
<g id="edge43" class="edge"><title>appform_tuition_paid&#45;&gt;appform_tuition_paid</title>
<path fill="none" stroke="black" d="M677.033,-123.434C689.837,-123.009 699.535,-120.531 699.535,-116 699.535,-112.814 694.741,-110.643 687.443,-109.487"/>
<polygon fill="black" stroke="black" points="687.303,-105.961 677.033,-108.566 686.686,-112.934 687.303,-105.961"/>
<text text-anchor="middle" x="716.752" y="-113" font-family="Times,serif" font-size="10.00">payment</text>
</g>
<!-- appform_tuition_paid&#45;&gt;appform_not_coming -->
<g id="edge21" class="edge"><title>appform_tuition_paid&#45;&gt;appform_not_coming</title>
<path fill="none" stroke="black" d="M611.689,-98.8108C599.393,-87.0999 582.601,-71.1077 568.904,-58.063"/>
<polygon fill="black" stroke="black" points="571.316,-55.5272 561.661,-51.1651 566.489,-60.5962 571.316,-55.5272"/>
<text text-anchor="middle" x="615.015" y="-72" font-family="Times,serif" font-size="10.00">wont_come</text>
</g>
<!-- appform_coming -->
<g id="node24" class="node"><title>appform_coming</title>
<ellipse fill="none" stroke="black" cx="684.688" cy="-34" rx="36.7663" ry="18"/>
<text text-anchor="middle" x="684.688" y="-29.8" font-family="Times,serif" font-size="14.00">coming</text>
</g>
<!-- appform_tuition_paid&#45;&gt;appform_coming -->
<g id="edge24" class="edge"><title>appform_tuition_paid&#45;&gt;appform_coming</title>
<path fill="none" stroke="black" d="M640.291,-98.4239C648.152,-87.194 658.675,-72.1608 667.503,-59.549"/>
<polygon fill="black" stroke="black" points="670.424,-61.4806 673.291,-51.2811 664.689,-57.4663 670.424,-61.4806"/>
<text text-anchor="middle" x="680.794" y="-72" font-family="Times,serif" font-size="10.00">will_come</text>
</g>
<!-- appform_scholarship_awarded -->
<g id="node22" class="node"><title>appform_scholarship_awarded</title>
<ellipse fill="none" stroke="black" cx="856.688" cy="-116" rx="84.5169" ry="18"/>
<text text-anchor="middle" x="856.688" y="-111.8" font-family="Times,serif" font-size="14.00">scholarship_awarded</text>
</g>
<!-- appform_scholarship_shortlisted&#45;&gt;appform_scholarship_awarded -->
<g id="edge32" class="edge"><title>appform_scholarship_shortlisted&#45;&gt;appform_scholarship_awarded</title>
<path fill="none" stroke="black" d="M839.129,-351.943C873.053,-343.689 909.929,-327.956 930.688,-298 965.743,-247.415 914.039,-177.705 880.874,-141.325"/>
<polygon fill="black" stroke="black" points="883.099,-138.579 873.713,-133.665 877.986,-143.36 883.099,-138.579"/>
<text text-anchor="middle" x="975.235" y="-236" font-family="Times,serif" font-size="10.00">grant_scholarship</text>
</g>
<!-- appform_scholarship_not_awarded -->
<g id="node23" class="node"><title>appform_scholarship_not_awarded</title>
<ellipse fill="none" stroke="black" cx="769.688" cy="-280" rx="100.461" ry="18"/>
<text text-anchor="middle" x="769.688" y="-275.8" font-family="Times,serif" font-size="14.00">scholarship_not_awarded</text>
</g>
<!-- appform_scholarship_shortlisted&#45;&gt;appform_scholarship_not_awarded -->
<g id="edge33" class="edge"><title>appform_scholarship_shortlisted&#45;&gt;appform_scholarship_not_awarded</title>
<path fill="none" stroke="black" d="M764.207,-343.641C765.112,-333.297 766.28,-319.941 767.306,-308.221"/>
<polygon fill="black" stroke="black" points="770.811,-308.317 768.196,-298.05 763.837,-307.707 770.811,-308.317"/>
<text text-anchor="middle" x="795.961" y="-318" font-family="Times,serif" font-size="10.00">no_scholarship</text>
</g>
<!-- appform_scholarship_awarded&#45;&gt;appform_not_coming -->
<g id="edge19" class="edge"><title>appform_scholarship_awarded&#45;&gt;appform_not_coming</title>
<path fill="none" stroke="black" d="M822.918,-99.383C795.609,-86.7964 761.138,-71.0235 757.688,-70 706.406,-54.7876 691.456,-60.7606 638.688,-52 626.037,-49.8997 612.452,-47.5171 599.651,-45.2144"/>
<polygon fill="black" stroke="black" points="600.05,-41.7298 589.587,-43.3917 598.803,-48.6178 600.05,-41.7298"/>
<text text-anchor="middle" x="802.015" y="-72" font-family="Times,serif" font-size="10.00">wont_come</text>
</g>
<!-- appform_scholarship_awarded&#45;&gt;appform_coming -->
<g id="edge23" class="edge"><title>appform_scholarship_awarded&#45;&gt;appform_coming</title>
<path fill="none" stroke="black" d="M851.025,-97.6836C847.053,-88.1614 840.803,-76.9114 831.688,-70 802.952,-48.2126 762.692,-39.7317 731.57,-36.5491"/>
<polygon fill="black" stroke="black" points="731.662,-33.0439 721.395,-35.6613 731.053,-40.0174 731.662,-33.0439"/>
<text text-anchor="middle" x="861.794" y="-72" font-family="Times,serif" font-size="10.00">will_come</text>
</g>
<!-- appform_scholarship_not_awarded&#45;&gt;appform_extension -->
<g id="edge29" class="edge"><title>appform_scholarship_not_awarded&#45;&gt;appform_extension</title>
<path fill="none" stroke="black" d="M728.509,-263.566C714.431,-257.885 698.732,-251.093 684.816,-244 670.356,-236.63 654.968,-227.389 642.058,-219.202"/>
<polygon fill="black" stroke="black" points="643.862,-216.201 633.557,-213.739 640.077,-222.09 643.862,-216.201"/>
<text text-anchor="middle" x="716.624" y="-236" font-family="Times,serif" font-size="10.00">grant_extension</text>
</g>
<!-- appform_scholarship_not_awarded&#45;&gt;appform_deposit_paid -->
<g id="edge39" class="edge"><title>appform_scholarship_not_awarded&#45;&gt;appform_deposit_paid</title>
<path fill="none" stroke="black" d="M708.321,-265.708C683.54,-259.823 654.813,-252.34 629.254,-244 618.047,-240.343 616.055,-237.123 604.688,-234 596.404,-231.724 498.263,-217.245 432.308,-207.637"/>
<polygon fill="black" stroke="black" points="432.418,-204.116 422.018,-206.139 431.41,-211.043 432.418,-204.116"/>
<text text-anchor="middle" x="645.905" y="-236" font-family="Times,serif" font-size="10.00">payment</text>
</g>
<!-- appform_scholarship_not_awarded&#45;&gt;appform_tuition_paid -->
<g id="edge35" class="edge"><title>appform_scholarship_not_awarded&#45;&gt;appform_tuition_paid</title>
<path fill="none" stroke="black" d="M763.634,-262C755.487,-240.908 739.353,-204.712 716.688,-180 701.439,-163.374 681.135,-148.485 663.874,-137.361"/>
<polygon fill="black" stroke="black" points="665.498,-134.248 655.167,-131.898 661.777,-140.177 665.498,-134.248"/>
<text text-anchor="middle" x="757.905" y="-195" font-family="Times,serif" font-size="10.00">payment</text>
</g>
<!-- appform_scholarship_not_awarded&#45;&gt;appform_not_coming -->
<g id="edge17" class="edge"><title>appform_scholarship_not_awarded&#45;&gt;appform_not_coming</title>
<path fill="none" stroke="black" d="M772.791,-261.957C774.928,-249.322 777.576,-231.649 778.688,-216 779.822,-200.04 781.974,-195.659 778.688,-180 774.601,-160.523 755.02,-113.619 742.688,-98 729.908,-81.8144 724.425,-78.6144 705.688,-70 695.913,-65.5061 642.028,-54.2071 599.25,-45.653"/>
<polygon fill="black" stroke="black" points="599.696,-42.1731 589.205,-43.6536 598.329,-49.0384 599.696,-42.1731"/>
<text text-anchor="middle" x="796.015" y="-154" font-family="Times,serif" font-size="10.00">wont_come</text>
</g>
<!-- appform_scholarship_not_awarded&#45;&gt;appform_scholarship_not_awarded -->
<g id="edge41" class="edge"><title>appform_scholarship_not_awarded&#45;&gt;appform_scholarship_not_awarded</title>
<path fill="none" stroke="black" d="M862.576,-286.939C877.744,-285.946 888.168,-283.633 888.168,-280 888.168,-277.247 882.182,-275.252 872.681,-274.015"/>
<polygon fill="black" stroke="black" points="872.861,-270.516 862.576,-273.061 872.203,-277.485 872.861,-270.516"/>
<text text-anchor="middle" x="905.385" y="-277" font-family="Times,serif" font-size="10.00">payment</text>
</g>
</g>
</svg>
