<?xml version="1.0" encoding="UTF-8" standalone="no"?>
<!DOCTYPE svg PUBLIC "-//W3C//DTD SVG 1.1//EN"
 "http://www.w3.org/Graphics/SVG/1.1/DTD/svg11.dtd">
<!-- Generated by graphviz version 2.38.0 (20140413.2041)
 -->
<!-- Title: models_diagram Pages: 1 -->
<svg width="971pt" height="1213pt"
 viewBox="0.00 0.00 971.45 1212.50" xmlns="http://www.w3.org/2000/svg" xmlns:xlink="http://www.w3.org/1999/xlink">
<g id="graph0" class="graph" transform="scale(1 1) rotate(0) translate(4 1208.5)">
<title>models_diagram</title>
<polygon fill="none" stroke="none" points="-4,4 -4,-1208.5 967.45,-1208.5 967.45,4 -4,4"/>
<g id="clust1" class="cluster"><title>cluster_appform</title>
<polygon fill="none" stroke="black" points="214.45,-8 214.45,-1196.5 955.45,-1196.5 955.45,-8 214.45,-8"/>
<text text-anchor="middle" x="584.95" y="-1181.3" font-family="Times,serif" font-size="14.00">AppForm</text>
</g>
<!-- _diagram_info -->
<g id="node1" class="node"><title>_diagram_info</title>
<text text-anchor="start" x="8" y="-1166.6" font-family="Times,serif" font-size="13.00">Models diagram</text>
<text text-anchor="start" x="8" y="-1153.6" font-family="Times,serif" font-size="13.00">Date: Jan 07 2017 &#45; 03:56</text>
<text text-anchor="start" x="8" y="-1140.6" font-family="Times,serif" font-size="13.00">Migration version: 20161231151829</text>
<text text-anchor="start" x="8" y="-1127.6" font-family="Times,serif" font-size="13.00">Generated by RailRoady 1.5.1</text>
<text text-anchor="start" x="8" y="-1114.6" font-family="Times,serif" font-size="13.00">http://railroady.prestonlee.com</text>
</g>
<!-- appform_applied -->
<g id="node2" class="node"><title>appform_applied</title>
<ellipse fill="none" stroke="black" cx="591.45" cy="-1144.5" rx="36.2595" ry="18"/>
<ellipse fill="none" stroke="black" cx="591.45" cy="-1144.5" rx="40.2731" ry="22"/>
<text text-anchor="middle" x="591.45" y="-1140.3" font-family="Times,serif" font-size="14.00">applied</text>
</g>
<!-- appform_decided_to_invite -->
<g id="node3" class="node"><title>appform_decided_to_invite</title>
<ellipse fill="none" stroke="black" cx="528.45" cy="-1044" rx="73.4326" ry="18"/>
<text text-anchor="middle" x="528.45" y="-1039.8" font-family="Times,serif" font-size="14.00">decided_to_invite</text>
</g>
<!-- appform_applied&#45;&gt;appform_decided_to_invite -->
<g id="edge1" class="edge"><title>appform_applied&#45;&gt;appform_decided_to_invite</title>
<path fill="none" stroke="black" d="M578.701,-1123.57C568.932,-1108.29 555.381,-1087.11 544.813,-1070.58"/>
<polygon fill="black" stroke="black" points="547.628,-1068.49 539.291,-1061.95 541.731,-1072.26 547.628,-1068.49"/>
<text text-anchor="middle" x="566.836" y="-1082" font-family="Times,serif" font-size="10.00">invite</text>
</g>
<!-- appform_decided_to_reject_application -->
<g id="node5" class="node"><title>appform_decided_to_reject_application</title>
<ellipse fill="none" stroke="black" cx="736.45" cy="-1044" rx="116.847" ry="18"/>
<text text-anchor="middle" x="736.45" y="-1039.8" font-family="Times,serif" font-size="14.00">decided_to_reject_application</text>
</g>
<!-- appform_applied&#45;&gt;appform_decided_to_reject_application -->
<g id="edge7" class="edge"><title>appform_applied&#45;&gt;appform_decided_to_reject_application</title>
<path fill="none" stroke="black" d="M616.047,-1126.79C640.003,-1110.52 676.588,-1085.66 703.143,-1067.63"/>
<polygon fill="black" stroke="black" points="705.427,-1070.31 711.732,-1061.79 701.493,-1064.52 705.427,-1070.31"/>
<text text-anchor="middle" x="691.551" y="-1082" font-family="Times,serif" font-size="10.00">reject</text>
</g>
<!-- appform_invite_email_sent -->
<g id="node4" class="node"><title>appform_invite_email_sent</title>
<ellipse fill="none" stroke="black" cx="528.45" cy="-962" rx="72.9567" ry="18"/>
<text text-anchor="middle" x="528.45" y="-957.8" font-family="Times,serif" font-size="14.00">invite_email_sent</text>
</g>
<!-- appform_decided_to_invite&#45;&gt;appform_invite_email_sent -->
<g id="edge2" class="edge"><title>appform_decided_to_invite&#45;&gt;appform_invite_email_sent</title>
<path fill="none" stroke="black" d="M528.45,-1025.64C528.45,-1015.3 528.45,-1001.94 528.45,-990.221"/>
<polygon fill="black" stroke="black" points="531.95,-990.05 528.45,-980.05 524.95,-990.05 531.95,-990.05"/>
<text text-anchor="middle" x="550.11" y="-1000" font-family="Times,serif" font-size="10.00">email_sent</text>
</g>
<!-- appform_interview_scheduled -->
<g id="node7" class="node"><title>appform_interview_scheduled</title>
<ellipse fill="none" stroke="black" cx="547.45" cy="-798" rx="83.0718" ry="18"/>
<text text-anchor="middle" x="547.45" y="-793.8" font-family="Times,serif" font-size="14.00">interview_scheduled</text>
</g>
<!-- appform_invite_email_sent&#45;&gt;appform_interview_scheduled -->
<g id="edge10" class="edge"><title>appform_invite_email_sent&#45;&gt;appform_interview_scheduled</title>
<path fill="none" stroke="black" d="M519.539,-943.999C510.312,-924.129 498.33,-890.354 506.701,-862 510.717,-848.396 518.689,-834.967 526.525,-824.025"/>
<polygon fill="black" stroke="black" points="529.479,-825.92 532.702,-815.827 523.889,-821.708 529.479,-825.92"/>
<text text-anchor="middle" x="546.324" y="-877" font-family="Times,serif" font-size="10.00">schedule_interview</text>
</g>
<!-- appform_invite_no_response -->
<g id="node10" class="node"><title>appform_invite_no_response</title>
<ellipse fill="none" stroke="black" cx="672.45" cy="-880" rx="78.7539" ry="18"/>
<text text-anchor="middle" x="672.45" y="-875.8" font-family="Times,serif" font-size="14.00">invite_no_response</text>
</g>
<!-- appform_invite_email_sent&#45;&gt;appform_invite_no_response -->
<g id="edge15" class="edge"><title>appform_invite_email_sent&#45;&gt;appform_invite_no_response</title>
<path fill="none" stroke="black" d="M556.556,-945.385C578.91,-932.967 610.391,-915.477 634.903,-901.859"/>
<polygon fill="black" stroke="black" points="636.88,-904.765 643.922,-896.849 633.481,-898.646 636.88,-904.765"/>
<text text-anchor="middle" x="633.445" y="-918" font-family="Times,serif" font-size="10.00">no_response</text>
</g>
<!-- appform_application_reject_email_sent -->
<g id="node6" class="node"><title>appform_application_reject_email_sent</title>
<ellipse fill="none" stroke="black" cx="736.45" cy="-962" rx="116.371" ry="18"/>
<text text-anchor="middle" x="736.45" y="-957.8" font-family="Times,serif" font-size="14.00">application_reject_email_sent</text>
</g>
<!-- appform_decided_to_reject_application&#45;&gt;appform_application_reject_email_sent -->
<g id="edge3" class="edge"><title>appform_decided_to_reject_application&#45;&gt;appform_application_reject_email_sent</title>
<path fill="none" stroke="black" d="M736.45,-1025.64C736.45,-1015.3 736.45,-1001.94 736.45,-990.221"/>
<polygon fill="black" stroke="black" points="739.95,-990.05 736.45,-980.05 732.95,-990.05 739.95,-990.05"/>
<text text-anchor="middle" x="758.11" y="-1000" font-family="Times,serif" font-size="10.00">email_sent</text>
</g>
<!-- appform_interview_scheduled&#45;&gt;appform_interview_scheduled -->
<g id="edge12" class="edge"><title>appform_interview_scheduled&#45;&gt;appform_interview_scheduled</title>
<path fill="none" stroke="black" d="M624.298,-805.115C638.637,-804.239 648.735,-801.867 648.735,-798 648.735,-795.13 643.173,-793.083 634.443,-791.861"/>
<polygon fill="black" stroke="black" points="634.588,-788.359 624.298,-790.885 633.917,-795.327 634.588,-788.359"/>
<text text-anchor="middle" x="670.112" y="-795" font-family="Times,serif" font-size="10.00">reschedule</text>
</g>
<!-- appform_interviewed -->
<g id="node8" class="node"><title>appform_interviewed</title>
<ellipse fill="none" stroke="black" cx="486.45" cy="-716" rx="51.7002" ry="18"/>
<text text-anchor="middle" x="486.45" y="-711.8" font-family="Times,serif" font-size="14.00">interviewed</text>
</g>
<!-- appform_interview_scheduled&#45;&gt;appform_interviewed -->
<g id="edge11" class="edge"><title>appform_interview_scheduled&#45;&gt;appform_interviewed</title>
<path fill="none" stroke="black" d="M518.514,-781.116C511.145,-775.875 503.857,-769.447 498.686,-762 495.077,-756.802 492.532,-750.584 490.736,-744.453"/>
<polygon fill="black" stroke="black" points="494.07,-743.341 488.368,-734.412 487.257,-744.948 494.07,-743.341"/>
<text text-anchor="middle" x="518.332" y="-754" font-family="Times,serif" font-size="10.00">interview</text>
</g>
<!-- appform_no_show -->
<g id="node11" class="node"><title>appform_no_show</title>
<ellipse fill="none" stroke="black" cx="602.45" cy="-716" rx="42.087" ry="18"/>
<text text-anchor="middle" x="602.45" y="-711.8" font-family="Times,serif" font-size="14.00">no_show</text>
</g>
<!-- appform_interview_scheduled&#45;&gt;appform_no_show -->
<g id="edge16" class="edge"><title>appform_interview_scheduled&#45;&gt;appform_no_show</title>
<path fill="none" stroke="black" d="M541.92,-779.756C540.123,-770.928 539.636,-760.318 544.336,-752 548.626,-744.409 555.294,-738.281 562.607,-733.406"/>
<polygon fill="black" stroke="black" points="564.538,-736.331 571.384,-728.244 560.99,-730.297 564.538,-736.331"/>
<text text-anchor="middle" x="561.506" y="-754" font-family="Times,serif" font-size="10.00">no_show</text>
</g>
<!-- appform_rejected_after_interview -->
<g id="node9" class="node"><title>appform_rejected_after_interview</title>
<ellipse fill="none" stroke="black" cx="368.45" cy="-470" rx="96.5499" ry="18"/>
<text text-anchor="middle" x="368.45" y="-465.8" font-family="Times,serif" font-size="14.00">rejected_after_interview</text>
</g>
<!-- appform_interviewed&#45;&gt;appform_rejected_after_interview -->
<g id="edge8" class="edge"><title>appform_interviewed&#45;&gt;appform_rejected_after_interview</title>
<path fill="none" stroke="black" d="M476.405,-698.062C473.131,-692.376 469.545,-685.963 466.45,-680 432.918,-615.403 397.642,-537.276 379.972,-497.324"/>
<polygon fill="black" stroke="black" points="383.107,-495.759 375.87,-488.021 376.702,-498.583 383.107,-495.759"/>
<text text-anchor="middle" x="437.551" y="-590" font-family="Times,serif" font-size="10.00">reject</text>
</g>
<!-- appform_admitted -->
<g id="node15" class="node"><title>appform_admitted</title>
<ellipse fill="none" stroke="black" cx="524.45" cy="-470" rx="41.1007" ry="18"/>
<text text-anchor="middle" x="524.45" y="-465.8" font-family="Times,serif" font-size="14.00">admitted</text>
</g>
<!-- appform_interviewed&#45;&gt;appform_admitted -->
<g id="edge26" class="edge"><title>appform_interviewed&#45;&gt;appform_admitted</title>
<path fill="none" stroke="black" d="M479.479,-698.093C467.017,-665.236 444.211,-590.989 466.45,-534 472.701,-517.981 485.143,-503.577 496.906,-492.598"/>
<polygon fill="black" stroke="black" points="499.305,-495.148 504.466,-485.896 494.661,-489.911 499.305,-495.148"/>
<text text-anchor="middle" x="468.836" y="-590" font-family="Times,serif" font-size="10.00">admit</text>
</g>
<!-- appform_waitlisted -->
<g id="node16" class="node"><title>appform_waitlisted</title>
<ellipse fill="none" stroke="black" cx="531.45" cy="-634" rx="44.4837" ry="18"/>
<text text-anchor="middle" x="531.45" y="-629.8" font-family="Times,serif" font-size="14.00">waitlisted</text>
</g>
<!-- appform_interviewed&#45;&gt;appform_waitlisted -->
<g id="edge29" class="edge"><title>appform_interviewed&#45;&gt;appform_waitlisted</title>
<path fill="none" stroke="black" d="M495.993,-698.034C502.12,-687.142 510.19,-672.794 517.084,-660.539"/>
<polygon fill="black" stroke="black" points="520.222,-662.099 522.074,-651.667 514.121,-658.667 520.222,-662.099"/>
<text text-anchor="middle" x="527.171" y="-672" font-family="Times,serif" font-size="10.00">waitlist</text>
</g>
<!-- appform_scholarship_shortlisted -->
<g id="node21" class="node"><title>appform_scholarship_shortlisted</title>
<ellipse fill="none" stroke="black" cx="689.45" cy="-416" rx="91.8085" ry="18"/>
<text text-anchor="middle" x="689.45" y="-411.8" font-family="Times,serif" font-size="14.00">scholarship_shortlisted</text>
</g>
<!-- appform_interviewed&#45;&gt;appform_scholarship_shortlisted -->
<g id="edge32" class="edge"><title>appform_interviewed&#45;&gt;appform_scholarship_shortlisted</title>
<path fill="none" stroke="black" d="M525.11,-703.853C584.009,-686.313 689.45,-652.473 689.45,-635 689.45,-635 689.45,-635 689.45,-510 689.45,-487.865 689.45,-462.767 689.45,-444.227"/>
<polygon fill="black" stroke="black" points="692.95,-444.141 689.45,-434.141 685.95,-444.141 692.95,-444.141"/>
<text text-anchor="middle" x="739.167" y="-590" font-family="Times,serif" font-size="10.00">shortlist_for_scholarship</text>
</g>
<!-- appform_decision_reject_email_sent -->
<g id="node12" class="node"><title>appform_decision_reject_email_sent</title>
<ellipse fill="none" stroke="black" cx="328.45" cy="-362" rx="106.232" ry="18"/>
<text text-anchor="middle" x="328.45" y="-357.8" font-family="Times,serif" font-size="14.00">decision_reject_email_sent</text>
</g>
<!-- appform_rejected_after_interview&#45;&gt;appform_decision_reject_email_sent -->
<g id="edge4" class="edge"><title>appform_rejected_after_interview&#45;&gt;appform_decision_reject_email_sent</title>
<path fill="none" stroke="black" d="M362.023,-451.969C355.667,-435.125 345.847,-409.102 338.466,-389.544"/>
<polygon fill="black" stroke="black" points="341.666,-388.109 334.86,-379.988 335.116,-390.58 341.666,-388.109"/>
<text text-anchor="middle" x="376.11" y="-413" font-family="Times,serif" font-size="10.00">email_sent</text>
</g>
<!-- appform_invite_no_response&#45;&gt;appform_interview_scheduled -->
<g id="edge13" class="edge"><title>appform_invite_no_response&#45;&gt;appform_interview_scheduled</title>
<path fill="none" stroke="black" d="M647.154,-862.811C628.178,-850.666 602.008,-833.917 581.24,-820.626"/>
<polygon fill="black" stroke="black" points="583.017,-817.608 572.708,-815.165 579.244,-823.504 583.017,-817.608"/>
<text text-anchor="middle" x="637.827" y="-836" font-family="Times,serif" font-size="10.00">reschedule</text>
</g>
<!-- appform_no_show&#45;&gt;appform_interview_scheduled -->
<g id="edge14" class="edge"><title>appform_no_show&#45;&gt;appform_interview_scheduled</title>
<path fill="none" stroke="black" d="M597.56,-734.102C594.578,-742.891 590.219,-753.509 584.45,-762 581.864,-765.805 578.801,-769.51 575.561,-772.997"/>
<polygon fill="black" stroke="black" points="572.91,-770.698 568.304,-780.239 577.855,-775.653 572.91,-770.698"/>
<text text-anchor="middle" x="610.827" y="-754" font-family="Times,serif" font-size="10.00">reschedule</text>
</g>
<!-- appform_waitlist_email_sent -->
<g id="node13" class="node"><title>appform_waitlist_email_sent</title>
<ellipse fill="none" stroke="black" cx="554.45" cy="-552" rx="78.7539" ry="18"/>
<text text-anchor="middle" x="554.45" y="-547.8" font-family="Times,serif" font-size="14.00">waitlist_email_sent</text>
</g>
<!-- appform_waitlist_email_sent&#45;&gt;appform_rejected_after_interview -->
<g id="edge9" class="edge"><title>appform_waitlist_email_sent&#45;&gt;appform_rejected_after_interview</title>
<path fill="none" stroke="black" d="M519.027,-535.764C489.288,-522.973 446.598,-504.612 414.262,-490.704"/>
<polygon fill="black" stroke="black" points="415.581,-487.462 405.012,-486.726 412.815,-493.892 415.581,-487.462"/>
<text text-anchor="middle" x="484.551" y="-508" font-family="Times,serif" font-size="10.00">reject</text>
</g>
<!-- appform_waitlist_email_sent&#45;&gt;appform_admitted -->
<g id="edge27" class="edge"><title>appform_waitlist_email_sent&#45;&gt;appform_admitted</title>
<path fill="none" stroke="black" d="M546.984,-534.011C544.563,-528.321 541.924,-521.919 539.676,-516 537.463,-510.171 535.23,-503.861 533.18,-497.862"/>
<polygon fill="black" stroke="black" points="536.438,-496.569 529.942,-488.2 529.801,-498.793 536.438,-496.569"/>
<text text-anchor="middle" x="550.836" y="-508" font-family="Times,serif" font-size="10.00">admit</text>
</g>
<!-- appform_waitlist_email_sent&#45;&gt;appform_scholarship_shortlisted -->
<g id="edge33" class="edge"><title>appform_waitlist_email_sent&#45;&gt;appform_scholarship_shortlisted</title>
<path fill="none" stroke="black" d="M564.485,-533.971C570.023,-525.202 577.325,-514.58 585.016,-506 607.435,-480.992 636.835,-456.535 658.728,-439.607"/>
<polygon fill="black" stroke="black" points="660.898,-442.354 666.721,-433.503 656.649,-436.791 660.898,-442.354"/>
<text text-anchor="middle" x="634.167" y="-508" font-family="Times,serif" font-size="10.00">shortlist_for_scholarship</text>
</g>
<!-- appform_admit_email_sent -->
<g id="node14" class="node"><title>appform_admit_email_sent</title>
<ellipse fill="none" stroke="black" cx="525.45" cy="-362" rx="72.9567" ry="18"/>
<text text-anchor="middle" x="525.45" y="-357.8" font-family="Times,serif" font-size="14.00">admit_email_sent</text>
</g>
<!-- appform_admit_email_sent&#45;&gt;appform_admit_email_sent -->
<g id="edge44" class="edge"><title>appform_admit_email_sent&#45;&gt;appform_admit_email_sent</title>
<path fill="none" stroke="black" d="M592.498,-369.236C606.418,-368.475 616.428,-366.062 616.428,-362 616.428,-359.017 611.03,-356.923 602.649,-355.72"/>
<polygon fill="black" stroke="black" points="602.782,-352.217 592.498,-354.764 602.126,-359.186 602.782,-352.217"/>
<text text-anchor="middle" x="633.645" y="-359" font-family="Times,serif" font-size="10.00">payment</text>
</g>
<!-- appform_extension -->
<g id="node17" class="node"><title>appform_extension</title>
<ellipse fill="none" stroke="black" cx="640.45" cy="-198" rx="43.9992" ry="18"/>
<text text-anchor="middle" x="640.45" y="-193.8" font-family="Times,serif" font-size="14.00">extension</text>
</g>
<!-- appform_admit_email_sent&#45;&gt;appform_extension -->
<g id="edge30" class="edge"><title>appform_admit_email_sent&#45;&gt;appform_extension</title>
<path fill="none" stroke="black" d="M517.787,-343.824C509.701,-322.875 500.095,-287.153 515.578,-262 525.164,-246.426 566.702,-227.368 599.272,-214.318"/>
<polygon fill="black" stroke="black" points="600.594,-217.559 608.615,-210.638 598.028,-211.046 600.594,-217.559"/>
<text text-anchor="middle" x="548.386" y="-277" font-family="Times,serif" font-size="10.00">grant_extension</text>
</g>
<!-- appform_deposit_paid -->
<g id="node18" class="node"><title>appform_deposit_paid</title>
<ellipse fill="none" stroke="black" cx="471.45" cy="-198" rx="55.1008" ry="18"/>
<text text-anchor="middle" x="471.45" y="-193.8" font-family="Times,serif" font-size="14.00">deposit_paid</text>
</g>
<!-- appform_admit_email_sent&#45;&gt;appform_deposit_paid -->
<g id="edge41" class="edge"><title>appform_admit_email_sent&#45;&gt;appform_deposit_paid</title>
<path fill="none" stroke="black" d="M496.217,-345.336C479.316,-334.514 459.558,-318.402 450.016,-298 439.082,-274.622 447.728,-245.513 457.099,-224.926"/>
<polygon fill="black" stroke="black" points="460.291,-226.365 461.53,-215.843 454,-223.295 460.291,-226.365"/>
<text text-anchor="middle" x="467.667" y="-277" font-family="Times,serif" font-size="10.00">payment</text>
</g>
<!-- appform_tuition_paid -->
<g id="node19" class="node"><title>appform_tuition_paid</title>
<ellipse fill="none" stroke="black" cx="551.45" cy="-116" rx="52.6952" ry="18"/>
<text text-anchor="middle" x="551.45" y="-111.8" font-family="Times,serif" font-size="14.00">tuition_paid</text>
</g>
<!-- appform_admit_email_sent&#45;&gt;appform_tuition_paid -->
<g id="edge36" class="edge"><title>appform_admit_email_sent&#45;&gt;appform_tuition_paid</title>
<path fill="none" stroke="black" d="M471.61,-349.681C432.455,-341.403 382.874,-330.814 362.45,-326 313.766,-314.525 284.103,-337.523 253.45,-298 243.644,-285.357 248.035,-277.056 253.45,-262 262.424,-237.046 279.494,-239.67 291.45,-216 304.668,-189.829 285.232,-171.131 307.45,-152 339.085,-124.759 453.476,-142.003 494.45,-134 497.899,-133.326 501.438,-132.531 504.983,-131.659"/>
<polygon fill="black" stroke="black" points="506.142,-134.973 514.916,-129.034 504.354,-128.205 506.142,-134.973"/>
<text text-anchor="middle" x="294.667" y="-236" font-family="Times,serif" font-size="10.00">payment</text>
</g>
<!-- appform_not_coming -->
<g id="node20" class="node"><title>appform_not_coming</title>
<ellipse fill="none" stroke="black" cx="551.45" cy="-34" rx="52.2106" ry="18"/>
<text text-anchor="middle" x="551.45" y="-29.8" font-family="Times,serif" font-size="14.00">not_coming</text>
</g>
<!-- appform_admit_email_sent&#45;&gt;appform_not_coming -->
<g id="edge17" class="edge"><title>appform_admit_email_sent&#45;&gt;appform_not_coming</title>
<path fill="none" stroke="black" d="M473.1,-349.328C463.279,-347.371 453.075,-345.495 443.45,-344 367.061,-332.139 339.613,-360.53 270.45,-326 211.208,-296.424 208.851,-237.999 240.794,-180 290.843,-89.1285 416.752,-54.7808 492.018,-42.1126"/>
<polygon fill="black" stroke="black" points="492.97,-45.5048 502.29,-40.4653 491.861,-38.5931 492.97,-45.5048"/>
<text text-anchor="middle" x="264.777" y="-195" font-family="Times,serif" font-size="10.00">wont_come</text>
</g>
<!-- appform_attending -->
<g id="node24" class="node"><title>appform_attending</title>
<ellipse fill="none" stroke="black" cx="305.45" cy="-280" rx="43.0301" ry="18"/>
<text text-anchor="middle" x="305.45" y="-275.8" font-family="Times,serif" font-size="14.00">attending</text>
</g>
<!-- appform_admit_email_sent&#45;&gt;appform_attending -->
<g id="edge28" class="edge"><title>appform_admit_email_sent&#45;&gt;appform_attending</title>
<path fill="none" stroke="black" d="M473.189,-349.326C440.718,-341.786 402.251,-332.25 386.459,-326 369.24,-319.185 351.127,-309.4 336.406,-300.695"/>
<polygon fill="black" stroke="black" points="338.086,-297.621 327.716,-295.45 334.469,-303.614 338.086,-297.621"/>
<text text-anchor="middle" x="409.945" y="-318" font-family="Times,serif" font-size="10.00">will_attend</text>
</g>
<!-- appform_admitted&#45;&gt;appform_admit_email_sent -->
<g id="edge6" class="edge"><title>appform_admitted&#45;&gt;appform_admit_email_sent</title>
<path fill="none" stroke="black" d="M524.61,-451.969C524.767,-435.378 525.007,-409.883 525.191,-390.431"/>
<polygon fill="black" stroke="black" points="528.692,-390.373 525.286,-380.341 521.692,-390.307 528.692,-390.373"/>
<text text-anchor="middle" x="547.11" y="-413" font-family="Times,serif" font-size="10.00">email_sent</text>
</g>
<!-- appform_waitlisted&#45;&gt;appform_waitlist_email_sent -->
<g id="edge5" class="edge"><title>appform_waitlisted&#45;&gt;appform_waitlist_email_sent</title>
<path fill="none" stroke="black" d="M536.327,-616.034C539.326,-605.605 543.236,-592.006 546.656,-580.11"/>
<polygon fill="black" stroke="black" points="550.1,-580.795 549.5,-570.217 543.373,-578.861 550.1,-580.795"/>
<text text-anchor="middle" x="565.11" y="-590" font-family="Times,serif" font-size="10.00">email_sent</text>
</g>
<!-- appform_extension&#45;&gt;appform_extension -->
<g id="edge48" class="edge"><title>appform_extension&#45;&gt;appform_extension</title>
<path fill="none" stroke="black" d="M680.701,-205.489C692.908,-205.301 702.449,-202.805 702.449,-198 702.449,-194.622 697.732,-192.385 690.688,-191.289"/>
<polygon fill="black" stroke="black" points="690.942,-187.798 680.701,-190.511 690.399,-194.777 690.942,-187.798"/>
<text text-anchor="middle" x="719.666" y="-195" font-family="Times,serif" font-size="10.00">payment</text>
</g>
<!-- appform_extension&#45;&gt;appform_tuition_paid -->
<g id="edge39" class="edge"><title>appform_extension&#45;&gt;appform_tuition_paid</title>
<path fill="none" stroke="black" d="M622.866,-181.195C609.787,-169.438 591.738,-153.214 577.058,-140.018"/>
<polygon fill="black" stroke="black" points="579.078,-137.128 569.301,-133.046 574.399,-142.334 579.078,-137.128"/>
<text text-anchor="middle" x="617.667" y="-154" font-family="Times,serif" font-size="10.00">payment</text>
</g>
<!-- appform_extension&#45;&gt;appform_not_coming -->
<g id="edge19" class="edge"><title>appform_extension&#45;&gt;appform_not_coming</title>
<path fill="none" stroke="black" d="M651.762,-180.501C664.331,-159.924 680.942,-124.262 665.45,-98 651.452,-74.2722 624.96,-58.8603 601.034,-49.2231"/>
<polygon fill="black" stroke="black" points="602.269,-45.9482 591.678,-45.6846 599.793,-52.4957 602.269,-45.9482"/>
<text text-anchor="middle" x="694.777" y="-113" font-family="Times,serif" font-size="10.00">wont_come</text>
</g>
<!-- appform_deposit_paid&#45;&gt;appform_deposit_paid -->
<g id="edge46" class="edge"><title>appform_deposit_paid&#45;&gt;appform_deposit_paid</title>
<path fill="none" stroke="black" d="M522.151,-205.41C535.059,-204.923 544.75,-202.453 544.75,-198 544.75,-194.799 539.744,-192.623 532.135,-191.471"/>
<polygon fill="black" stroke="black" points="532.421,-187.983 522.151,-190.59 531.805,-194.956 532.421,-187.983"/>
<text text-anchor="middle" x="561.967" y="-195" font-family="Times,serif" font-size="10.00">payment</text>
</g>
<!-- appform_deposit_paid&#45;&gt;appform_tuition_paid -->
<g id="edge38" class="edge"><title>appform_deposit_paid&#45;&gt;appform_tuition_paid</title>
<path fill="none" stroke="black" d="M488.026,-180.424C499.58,-168.87 515.159,-153.29 527.986,-140.464"/>
<polygon fill="black" stroke="black" points="530.572,-142.827 535.169,-133.281 525.623,-137.877 530.572,-142.827"/>
<text text-anchor="middle" x="533.667" y="-154" font-family="Times,serif" font-size="10.00">payment</text>
</g>
<!-- appform_deposit_paid&#45;&gt;appform_not_coming -->
<g id="edge21" class="edge"><title>appform_deposit_paid&#45;&gt;appform_not_coming</title>
<path fill="none" stroke="black" d="M459.019,-180.273C445.437,-159.778 427.52,-124.512 442.794,-98 455.891,-75.2682 480.676,-59.988 503.271,-50.1761"/>
<polygon fill="black" stroke="black" points="504.841,-53.3159 512.78,-46.3001 502.199,-46.8337 504.841,-53.3159"/>
<text text-anchor="middle" x="466.777" y="-113" font-family="Times,serif" font-size="10.00">wont_come</text>
</g>
<!-- appform_tuition_paid&#45;&gt;appform_tuition_paid -->
<g id="edge47" class="edge"><title>appform_tuition_paid&#45;&gt;appform_tuition_paid</title>
<path fill="none" stroke="black" d="M599.795,-123.434C612.599,-123.009 622.297,-120.531 622.297,-116 622.297,-112.814 617.503,-110.643 610.205,-109.487"/>
<polygon fill="black" stroke="black" points="610.065,-105.961 599.795,-108.566 609.448,-112.934 610.065,-105.961"/>
<text text-anchor="middle" x="639.514" y="-113" font-family="Times,serif" font-size="10.00">payment</text>
</g>
<!-- appform_tuition_paid&#45;&gt;appform_not_coming -->
<g id="edge22" class="edge"><title>appform_tuition_paid&#45;&gt;appform_not_coming</title>
<path fill="none" stroke="black" d="M551.45,-97.6412C551.45,-87.2971 551.45,-73.941 551.45,-62.2206"/>
<polygon fill="black" stroke="black" points="554.95,-62.0501 551.45,-52.0501 547.95,-62.0501 554.95,-62.0501"/>
<text text-anchor="middle" x="574.777" y="-72" font-family="Times,serif" font-size="10.00">wont_come</text>
</g>
<!-- appform_coming -->
<g id="node25" class="node"><title>appform_coming</title>
<ellipse fill="none" stroke="black" cx="872.45" cy="-34" rx="36.7663" ry="18"/>
<text text-anchor="middle" x="872.45" y="-29.8" font-family="Times,serif" font-size="14.00">coming</text>
</g>
<!-- appform_tuition_paid&#45;&gt;appform_coming -->
<g id="edge25" class="edge"><title>appform_tuition_paid&#45;&gt;appform_coming</title>
<path fill="none" stroke="black" d="M598.902,-107.99C620.686,-104.831 646.864,-101.119 670.45,-98 736.14,-89.3141 757.623,-106.284 818.45,-80 830.233,-74.9082 841.45,-66.4034 850.577,-58.1499"/>
<polygon fill="black" stroke="black" points="853.197,-60.4871 858.02,-51.0537 848.367,-55.4205 853.197,-60.4871"/>
<text text-anchor="middle" x="855.556" y="-72" font-family="Times,serif" font-size="10.00">will_come</text>
</g>
<!-- appform_scholarship_awarded -->
<g id="node22" class="node"><title>appform_scholarship_awarded</title>
<ellipse fill="none" stroke="black" cx="862.45" cy="-116" rx="84.5169" ry="18"/>
<text text-anchor="middle" x="862.45" y="-111.8" font-family="Times,serif" font-size="14.00">scholarship_awarded</text>
</g>
<!-- appform_scholarship_shortlisted&#45;&gt;appform_scholarship_awarded -->
<g id="edge34" class="edge"><title>appform_scholarship_shortlisted&#45;&gt;appform_scholarship_awarded</title>
<path fill="none" stroke="black" d="M767.942,-406.674C819.116,-396.389 876.45,-373.396 876.45,-322 876.45,-322 876.45,-322 876.45,-197 876.45,-179.128 873.018,-159.342 869.552,-143.919"/>
<polygon fill="black" stroke="black" points="872.915,-142.93 867.189,-134.015 866.106,-144.555 872.915,-142.93"/>
<text text-anchor="middle" x="911.997" y="-277" font-family="Times,serif" font-size="10.00">grant_scholarship</text>
</g>
<!-- appform_scholarship_not_awarded -->
<g id="node23" class="node"><title>appform_scholarship_not_awarded</title>
<ellipse fill="none" stroke="black" cx="688.45" cy="-280" rx="100.461" ry="18"/>
<text text-anchor="middle" x="688.45" y="-275.8" font-family="Times,serif" font-size="14.00">scholarship_not_awarded</text>
</g>
<!-- appform_scholarship_shortlisted&#45;&gt;appform_scholarship_not_awarded -->
<g id="edge35" class="edge"><title>appform_scholarship_shortlisted&#45;&gt;appform_scholarship_not_awarded</title>
<path fill="none" stroke="black" d="M689.321,-397.756C689.152,-375.142 688.854,-335.203 688.654,-308.419"/>
<polygon fill="black" stroke="black" points="692.153,-308.151 688.578,-298.178 685.153,-308.204 692.153,-308.151"/>
<text text-anchor="middle" x="718.723" y="-359" font-family="Times,serif" font-size="10.00">no_scholarship</text>
</g>
<!-- appform_scholarship_awarded&#45;&gt;appform_not_coming -->
<g id="edge20" class="edge"><title>appform_scholarship_awarded&#45;&gt;appform_not_coming</title>
<path fill="none" stroke="black" d="M822.611,-99.9772C806.747,-93.902 788.358,-86.7424 771.794,-80 761.34,-75.7444 759.265,-73.2306 748.45,-70 702.981,-56.4181 649.942,-47.365 610.359,-41.8749"/>
<polygon fill="black" stroke="black" points="610.721,-38.3921 600.342,-40.5216 609.784,-45.329 610.721,-38.3921"/>
<text text-anchor="middle" x="794.777" y="-72" font-family="Times,serif" font-size="10.00">wont_come</text>
</g>
<!-- appform_scholarship_awarded&#45;&gt;appform_coming -->
<g id="edge24" class="edge"><title>appform_scholarship_awarded&#45;&gt;appform_coming</title>
<path fill="none" stroke="black" d="M875.12,-98.0472C878.508,-92.5701 881.709,-86.2828 883.45,-80 885.1,-74.0416 884.767,-67.6039 883.494,-61.5119"/>
<polygon fill="black" stroke="black" points="886.802,-60.3545 880.646,-51.7318 880.081,-62.3116 886.802,-60.3545"/>
<text text-anchor="middle" x="905.556" y="-72" font-family="Times,serif" font-size="10.00">will_come</text>
</g>
<!-- appform_scholarship_not_awarded&#45;&gt;appform_extension -->
<g id="edge31" class="edge"><title>appform_scholarship_not_awarded&#45;&gt;appform_extension</title>
<path fill="none" stroke="black" d="M678.27,-262.034C671.735,-251.142 663.126,-236.794 655.773,-224.539"/>
<polygon fill="black" stroke="black" points="658.596,-222.441 650.45,-215.667 652.594,-226.043 658.596,-222.441"/>
<text text-anchor="middle" x="698.386" y="-236" font-family="Times,serif" font-size="10.00">grant_extension</text>
</g>
<!-- appform_scholarship_not_awarded&#45;&gt;appform_deposit_paid -->
<g id="edge42" class="edge"><title>appform_scholarship_not_awarded&#45;&gt;appform_deposit_paid</title>
<path fill="none" stroke="black" d="M646.61,-263.575C609.301,-249.821 554.824,-229.737 516.554,-215.628"/>
<polygon fill="black" stroke="black" points="517.3,-212.173 506.707,-211.998 514.879,-218.741 517.3,-212.173"/>
<text text-anchor="middle" x="609.667" y="-236" font-family="Times,serif" font-size="10.00">payment</text>
</g>
<!-- appform_scholarship_not_awarded&#45;&gt;appform_tuition_paid -->
<g id="edge37" class="edge"><title>appform_scholarship_not_awarded&#45;&gt;appform_tuition_paid</title>
<path fill="none" stroke="black" d="M715.478,-262.303C722.346,-257.093 729.245,-250.884 734.45,-244 751.855,-220.978 762.416,-203.348 745.45,-180 728.91,-157.239 658.155,-138.461 606.863,-127.491"/>
<polygon fill="black" stroke="black" points="607.391,-124.025 596.886,-125.402 605.957,-130.877 607.391,-124.025"/>
<text text-anchor="middle" x="770.667" y="-195" font-family="Times,serif" font-size="10.00">payment</text>
</g>
<!-- appform_scholarship_not_awarded&#45;&gt;appform_not_coming -->
<g id="edge18" class="edge"><title>appform_scholarship_not_awarded&#45;&gt;appform_not_coming</title>
<path fill="none" stroke="black" d="M733.023,-263.745C754.769,-253.787 778.893,-238.399 791.45,-216 799.273,-202.043 796.932,-195.031 791.45,-180 775.128,-135.253 761.185,-125.717 722.45,-98 694.527,-78.0201 682.639,-81.9458 650.45,-70 633.02,-63.5315 613.765,-56.6621 596.906,-50.7379"/>
<polygon fill="black" stroke="black" points="597.884,-47.3718 587.289,-47.3692 595.57,-53.9783 597.884,-47.3718"/>
<text text-anchor="middle" x="806.777" y="-154" font-family="Times,serif" font-size="10.00">wont_come</text>
</g>
<!-- appform_scholarship_not_awarded&#45;&gt;appform_scholarship_not_awarded -->
<g id="edge45" class="edge"><title>appform_scholarship_not_awarded&#45;&gt;appform_scholarship_not_awarded</title>
<path fill="none" stroke="black" d="M781.338,-286.939C796.506,-285.946 806.93,-283.633 806.93,-280 806.93,-277.247 800.944,-275.252 791.443,-274.015"/>
<polygon fill="black" stroke="black" points="791.623,-270.516 781.338,-273.061 790.965,-277.485 791.623,-270.516"/>
<text text-anchor="middle" x="824.147" y="-277" font-family="Times,serif" font-size="10.00">payment</text>
</g>
<!-- appform_attending&#45;&gt;appform_deposit_paid -->
<g id="edge43" class="edge"><title>appform_attending&#45;&gt;appform_deposit_paid</title>
<path fill="none" stroke="black" d="M332.235,-265.685C350.46,-256.663 375.146,-244.515 397.016,-234 408.277,-228.586 420.536,-222.784 431.795,-217.492"/>
<polygon fill="black" stroke="black" points="433.406,-220.602 440.973,-213.186 430.433,-214.264 433.406,-220.602"/>
<text text-anchor="middle" x="414.667" y="-236" font-family="Times,serif" font-size="10.00">payment</text>
</g>
<!-- appform_attending&#45;&gt;appform_tuition_paid -->
<g id="edge40" class="edge"><title>appform_attending&#45;&gt;appform_tuition_paid</title>
<path fill="none" stroke="black" d="M318.098,-262.421C322.413,-256.648 327.216,-250.091 331.45,-244 350.809,-216.151 346.37,-200.985 373.016,-180 383.67,-171.609 454.817,-147.832 503.986,-132.008"/>
<polygon fill="black" stroke="black" points="505.355,-135.245 513.808,-128.859 503.217,-128.579 505.355,-135.245"/>
<text text-anchor="middle" x="390.667" y="-195" font-family="Times,serif" font-size="10.00">payment</text>
</g>
<!-- appform_attending&#45;&gt;appform_not_coming -->
<g id="edge23" class="edge"><title>appform_attending&#45;&gt;appform_not_coming</title>
<path fill="none" stroke="black" d="M310.276,-261.825C316.381,-241.497 327.99,-207 343.45,-180 377.961,-119.727 395.106,-106.087 454.45,-70 468.891,-61.2184 485.872,-54.1538 501.557,-48.7342"/>
<polygon fill="black" stroke="black" points="502.725,-52.0343 511.121,-45.5716 500.527,-45.3882 502.725,-52.0343"/>
<text text-anchor="middle" x="384.777" y="-154" font-family="Times,serif" font-size="10.00">wont_come</text>
</g>
<!-- appform_attending&#45;&gt;appform_attending -->
<g id="edge49" class="edge"><title>appform_attending&#45;&gt;appform_attending</title>
<path fill="none" stroke="black" d="M344.768,-287.493C356.921,-287.341 366.465,-284.844 366.465,-280 366.465,-276.67 361.954,-274.449 355.186,-273.337"/>
<polygon fill="black" stroke="black" points="355.014,-269.812 344.768,-272.507 354.459,-276.79 355.014,-269.812"/>
<text text-anchor="middle" x="383.682" y="-277" font-family="Times,serif" font-size="10.00">payment</text>
</g>
</g>
</svg>
